<mxfile host="app.diagrams.net" modified="2021-01-05T20:00:53.432Z" agent="5.0 (Windows NT 10.0; Win64; x64) AppleWebKit/537.36 (KHTML, like Gecko) Chrome/87.0.4280.88 Safari/537.36" etag="-b38Q-RWNeL8M2NxHCPK" version="14.1.8" type="github">
  <diagram id="iQXElWHDbqOCm6g8M7TW" name="Page-1">
    <mxGraphModel dx="1157" dy="600" grid="1" gridSize="10" guides="1" tooltips="1" connect="1" arrows="1" fold="1" page="1" pageScale="1" pageWidth="3300" pageHeight="4681" math="0" shadow="0">
      <root>
        <mxCell id="0" />
        <mxCell id="1" parent="0" />
        <mxCell id="xWXkVfhPle93Gli7PesM-1" value="FILM" style="rounded=0;whiteSpace=wrap;html=1;" vertex="1" parent="1">
          <mxGeometry x="720" y="700" width="120" height="60" as="geometry" />
        </mxCell>
        <mxCell id="xWXkVfhPle93Gli7PesM-2" value="&lt;u&gt;COD FILM&lt;/u&gt;" style="ellipse;whiteSpace=wrap;html=1;" vertex="1" parent="1">
          <mxGeometry x="540" y="660" width="80" height="60" as="geometry" />
        </mxCell>
        <mxCell id="xWXkVfhPle93Gli7PesM-3" value="TITOLO" style="ellipse;whiteSpace=wrap;html=1;" vertex="1" parent="1">
          <mxGeometry x="740" y="580" width="80" height="60" as="geometry" />
        </mxCell>
        <mxCell id="xWXkVfhPle93Gli7PesM-4" value="GENERE" style="ellipse;whiteSpace=wrap;html=1;" vertex="1" parent="1">
          <mxGeometry x="640" y="580" width="80" height="60" as="geometry" />
        </mxCell>
        <mxCell id="xWXkVfhPle93Gli7PesM-5" value="" style="ellipse;whiteSpace=wrap;html=1;" vertex="1" parent="1">
          <mxGeometry x="620" y="330" width="80" height="60" as="geometry" />
        </mxCell>
        <mxCell id="xWXkVfhPle93Gli7PesM-6" value="ANNO PROD" style="ellipse;whiteSpace=wrap;html=1;" vertex="1" parent="1">
          <mxGeometry x="840" y="580" width="80" height="60" as="geometry" />
        </mxCell>
        <mxCell id="xWXkVfhPle93Gli7PesM-7" value="REGISTA" style="ellipse;whiteSpace=wrap;html=1;" vertex="1" parent="1">
          <mxGeometry x="540" y="580" width="80" height="60" as="geometry" />
        </mxCell>
        <mxCell id="xWXkVfhPle93Gli7PesM-8" value="NAZIONE" style="ellipse;whiteSpace=wrap;html=1;" vertex="1" parent="1">
          <mxGeometry x="940" y="580" width="80" height="60" as="geometry" />
        </mxCell>
        <mxCell id="xWXkVfhPle93Gli7PesM-9" value="RECITA" style="rhombus;whiteSpace=wrap;html=1;" vertex="1" parent="1">
          <mxGeometry x="740" y="830" width="80" height="80" as="geometry" />
        </mxCell>
        <mxCell id="xWXkVfhPle93Gli7PesM-10" value="ATTORI" style="rounded=0;whiteSpace=wrap;html=1;" vertex="1" parent="1">
          <mxGeometry x="720" y="960" width="120" height="60" as="geometry" />
        </mxCell>
        <mxCell id="xWXkVfhPle93Gli7PesM-11" value="" style="endArrow=none;html=1;entryX=0.5;entryY=1;entryDx=0;entryDy=0;exitX=0.5;exitY=0;exitDx=0;exitDy=0;" edge="1" parent="1" source="xWXkVfhPle93Gli7PesM-9" target="xWXkVfhPle93Gli7PesM-1">
          <mxGeometry width="50" height="50" relative="1" as="geometry">
            <mxPoint x="820" y="870" as="sourcePoint" />
            <mxPoint x="870" y="820" as="targetPoint" />
          </mxGeometry>
        </mxCell>
        <mxCell id="xWXkVfhPle93Gli7PesM-12" value="" style="endArrow=none;html=1;exitX=0.5;exitY=0;exitDx=0;exitDy=0;entryX=0.5;entryY=1;entryDx=0;entryDy=0;" edge="1" parent="1" source="xWXkVfhPle93Gli7PesM-10" target="xWXkVfhPle93Gli7PesM-9">
          <mxGeometry width="50" height="50" relative="1" as="geometry">
            <mxPoint x="820" y="870" as="sourcePoint" />
            <mxPoint x="870" y="820" as="targetPoint" />
          </mxGeometry>
        </mxCell>
        <mxCell id="xWXkVfhPle93Gli7PesM-13" value="&lt;u&gt;COD PRO&lt;/u&gt;" style="ellipse;whiteSpace=wrap;html=1;" vertex="1" parent="1">
          <mxGeometry x="1000" y="850" width="80" height="60" as="geometry" />
        </mxCell>
        <mxCell id="xWXkVfhPle93Gli7PesM-14" value="NOME" style="ellipse;whiteSpace=wrap;html=1;" vertex="1" parent="1">
          <mxGeometry x="640" y="1070" width="80" height="60" as="geometry" />
        </mxCell>
        <mxCell id="xWXkVfhPle93Gli7PesM-15" value="NAZIONE" style="ellipse;whiteSpace=wrap;html=1;" vertex="1" parent="1">
          <mxGeometry x="840" y="1070" width="80" height="60" as="geometry" />
        </mxCell>
        <mxCell id="xWXkVfhPle93Gli7PesM-16" value="ANNO NASC" style="ellipse;whiteSpace=wrap;html=1;" vertex="1" parent="1">
          <mxGeometry x="740" y="1070" width="80" height="60" as="geometry" />
        </mxCell>
        <mxCell id="xWXkVfhPle93Gli7PesM-17" value="&lt;u&gt;COD.ATT&lt;/u&gt;" style="ellipse;whiteSpace=wrap;html=1;" vertex="1" parent="1">
          <mxGeometry x="900" y="1000" width="80" height="60" as="geometry" />
        </mxCell>
        <mxCell id="xWXkVfhPle93Gli7PesM-18" value="" style="endArrow=none;html=1;entryX=0;entryY=0.25;entryDx=0;entryDy=0;" edge="1" parent="1" source="xWXkVfhPle93Gli7PesM-2" target="xWXkVfhPle93Gli7PesM-1">
          <mxGeometry width="50" height="50" relative="1" as="geometry">
            <mxPoint x="890" y="870" as="sourcePoint" />
            <mxPoint x="940" y="820" as="targetPoint" />
          </mxGeometry>
        </mxCell>
        <mxCell id="xWXkVfhPle93Gli7PesM-19" value="" style="endArrow=none;html=1;exitX=1;exitY=0.5;exitDx=0;exitDy=0;entryX=0;entryY=0.5;entryDx=0;entryDy=0;" edge="1" parent="1" source="xWXkVfhPle93Gli7PesM-10" target="xWXkVfhPle93Gli7PesM-17">
          <mxGeometry width="50" height="50" relative="1" as="geometry">
            <mxPoint x="890" y="870" as="sourcePoint" />
            <mxPoint x="940" y="820" as="targetPoint" />
          </mxGeometry>
        </mxCell>
        <mxCell id="xWXkVfhPle93Gli7PesM-21" value="" style="endArrow=none;html=1;exitX=1;exitY=1;exitDx=0;exitDy=0;entryX=0.5;entryY=0;entryDx=0;entryDy=0;" edge="1" parent="1" source="xWXkVfhPle93Gli7PesM-10" target="xWXkVfhPle93Gli7PesM-15">
          <mxGeometry width="50" height="50" relative="1" as="geometry">
            <mxPoint x="890" y="1000" as="sourcePoint" />
            <mxPoint x="940" y="950" as="targetPoint" />
          </mxGeometry>
        </mxCell>
        <mxCell id="xWXkVfhPle93Gli7PesM-22" value="" style="endArrow=none;html=1;exitX=0.5;exitY=0;exitDx=0;exitDy=0;entryX=0.5;entryY=1;entryDx=0;entryDy=0;" edge="1" parent="1" source="xWXkVfhPle93Gli7PesM-16" target="xWXkVfhPle93Gli7PesM-10">
          <mxGeometry width="50" height="50" relative="1" as="geometry">
            <mxPoint x="890" y="1000" as="sourcePoint" />
            <mxPoint x="940" y="950" as="targetPoint" />
          </mxGeometry>
        </mxCell>
        <mxCell id="xWXkVfhPle93Gli7PesM-23" value="" style="endArrow=none;html=1;exitX=0.5;exitY=0;exitDx=0;exitDy=0;entryX=0;entryY=1;entryDx=0;entryDy=0;" edge="1" parent="1" source="xWXkVfhPle93Gli7PesM-14" target="xWXkVfhPle93Gli7PesM-10">
          <mxGeometry width="50" height="50" relative="1" as="geometry">
            <mxPoint x="890" y="1000" as="sourcePoint" />
            <mxPoint x="940" y="950" as="targetPoint" />
          </mxGeometry>
        </mxCell>
        <mxCell id="xWXkVfhPle93Gli7PesM-24" value="" style="endArrow=none;html=1;entryX=0;entryY=1;entryDx=0;entryDy=0;" edge="1" parent="1" source="xWXkVfhPle93Gli7PesM-1" target="xWXkVfhPle93Gli7PesM-4">
          <mxGeometry width="50" height="50" relative="1" as="geometry">
            <mxPoint x="890" y="870" as="sourcePoint" />
            <mxPoint x="940" y="820" as="targetPoint" />
          </mxGeometry>
        </mxCell>
        <mxCell id="xWXkVfhPle93Gli7PesM-25" value="" style="endArrow=none;html=1;exitX=1;exitY=1;exitDx=0;exitDy=0;" edge="1" parent="1" source="xWXkVfhPle93Gli7PesM-7">
          <mxGeometry width="50" height="50" relative="1" as="geometry">
            <mxPoint x="890" y="870" as="sourcePoint" />
            <mxPoint x="730" y="700" as="targetPoint" />
          </mxGeometry>
        </mxCell>
        <mxCell id="xWXkVfhPle93Gli7PesM-26" value="" style="endArrow=none;html=1;entryX=0.5;entryY=1;entryDx=0;entryDy=0;exitX=0.5;exitY=0;exitDx=0;exitDy=0;" edge="1" parent="1" source="xWXkVfhPle93Gli7PesM-1" target="xWXkVfhPle93Gli7PesM-3">
          <mxGeometry width="50" height="50" relative="1" as="geometry">
            <mxPoint x="890" y="870" as="sourcePoint" />
            <mxPoint x="940" y="820" as="targetPoint" />
          </mxGeometry>
        </mxCell>
        <mxCell id="xWXkVfhPle93Gli7PesM-27" value="" style="endArrow=none;html=1;entryX=0.5;entryY=1;entryDx=0;entryDy=0;exitX=0.75;exitY=0;exitDx=0;exitDy=0;" edge="1" parent="1" source="xWXkVfhPle93Gli7PesM-1" target="xWXkVfhPle93Gli7PesM-6">
          <mxGeometry width="50" height="50" relative="1" as="geometry">
            <mxPoint x="890" y="870" as="sourcePoint" />
            <mxPoint x="940" y="820" as="targetPoint" />
          </mxGeometry>
        </mxCell>
        <mxCell id="xWXkVfhPle93Gli7PesM-28" value="" style="endArrow=none;html=1;entryX=0;entryY=1;entryDx=0;entryDy=0;exitX=1;exitY=0;exitDx=0;exitDy=0;" edge="1" parent="1" source="xWXkVfhPle93Gli7PesM-1" target="xWXkVfhPle93Gli7PesM-8">
          <mxGeometry width="50" height="50" relative="1" as="geometry">
            <mxPoint x="890" y="870" as="sourcePoint" />
            <mxPoint x="940" y="820" as="targetPoint" />
          </mxGeometry>
        </mxCell>
        <mxCell id="xWXkVfhPle93Gli7PesM-29" value="PROIEZ" style="rhombus;whiteSpace=wrap;html=1;" vertex="1" parent="1">
          <mxGeometry x="1000" y="690" width="80" height="80" as="geometry" />
        </mxCell>
        <mxCell id="xWXkVfhPle93Gli7PesM-30" value="SALE" style="rounded=0;whiteSpace=wrap;html=1;" vertex="1" parent="1">
          <mxGeometry x="1200" y="700" width="120" height="60" as="geometry" />
        </mxCell>
        <mxCell id="xWXkVfhPle93Gli7PesM-31" value="" style="endArrow=none;html=1;exitX=1;exitY=0.5;exitDx=0;exitDy=0;entryX=0;entryY=0.5;entryDx=0;entryDy=0;" edge="1" parent="1" source="xWXkVfhPle93Gli7PesM-1" target="xWXkVfhPle93Gli7PesM-29">
          <mxGeometry width="50" height="50" relative="1" as="geometry">
            <mxPoint x="1170" y="870" as="sourcePoint" />
            <mxPoint x="1220" y="820" as="targetPoint" />
          </mxGeometry>
        </mxCell>
        <mxCell id="xWXkVfhPle93Gli7PesM-32" value="" style="endArrow=none;html=1;exitX=1;exitY=0.5;exitDx=0;exitDy=0;entryX=0;entryY=0.5;entryDx=0;entryDy=0;" edge="1" parent="1" source="xWXkVfhPle93Gli7PesM-63" target="xWXkVfhPle93Gli7PesM-30">
          <mxGeometry width="50" height="50" relative="1" as="geometry">
            <mxPoint x="1170" y="870" as="sourcePoint" />
            <mxPoint x="1220" y="820" as="targetPoint" />
          </mxGeometry>
        </mxCell>
        <mxCell id="xWXkVfhPle93Gli7PesM-33" value="CITTA&#39;" style="ellipse;whiteSpace=wrap;html=1;" vertex="1" parent="1">
          <mxGeometry x="1350" y="830" width="80" height="60" as="geometry" />
        </mxCell>
        <mxCell id="xWXkVfhPle93Gli7PesM-34" value="NOME" style="ellipse;whiteSpace=wrap;html=1;" vertex="1" parent="1">
          <mxGeometry x="1350" y="750" width="80" height="60" as="geometry" />
        </mxCell>
        <mxCell id="xWXkVfhPle93Gli7PesM-35" value="POSTI" style="ellipse;whiteSpace=wrap;html=1;" vertex="1" parent="1">
          <mxGeometry x="1350" y="670" width="80" height="60" as="geometry" />
        </mxCell>
        <mxCell id="xWXkVfhPle93Gli7PesM-36" value="&lt;u&gt;COD.SALA&lt;/u&gt;" style="ellipse;whiteSpace=wrap;html=1;" vertex="1" parent="1">
          <mxGeometry x="1350" y="590" width="80" height="60" as="geometry" />
        </mxCell>
        <mxCell id="xWXkVfhPle93Gli7PesM-37" value="INCASSO" style="ellipse;whiteSpace=wrap;html=1;" vertex="1" parent="1">
          <mxGeometry x="930" y="780" width="80" height="60" as="geometry" />
        </mxCell>
        <mxCell id="xWXkVfhPle93Gli7PesM-38" value="DATA PRO" style="ellipse;whiteSpace=wrap;html=1;" vertex="1" parent="1">
          <mxGeometry x="1080" y="780" width="80" height="60" as="geometry" />
        </mxCell>
        <mxCell id="xWXkVfhPle93Gli7PesM-39" value="" style="endArrow=none;html=1;exitX=1;exitY=0;exitDx=0;exitDy=0;entryX=0.5;entryY=1;entryDx=0;entryDy=0;" edge="1" parent="1" source="xWXkVfhPle93Gli7PesM-37" target="xWXkVfhPle93Gli7PesM-29">
          <mxGeometry width="50" height="50" relative="1" as="geometry">
            <mxPoint x="1170" y="600" as="sourcePoint" />
            <mxPoint x="1220" y="550" as="targetPoint" />
          </mxGeometry>
        </mxCell>
        <mxCell id="xWXkVfhPle93Gli7PesM-40" value="" style="endArrow=none;html=1;exitX=0.5;exitY=1;exitDx=0;exitDy=0;entryX=0;entryY=0;entryDx=0;entryDy=0;" edge="1" parent="1" source="xWXkVfhPle93Gli7PesM-29" target="xWXkVfhPle93Gli7PesM-38">
          <mxGeometry width="50" height="50" relative="1" as="geometry">
            <mxPoint x="1170" y="600" as="sourcePoint" />
            <mxPoint x="1220" y="550" as="targetPoint" />
          </mxGeometry>
        </mxCell>
        <mxCell id="xWXkVfhPle93Gli7PesM-41" value="" style="endArrow=none;html=1;entryX=0.917;entryY=1;entryDx=0;entryDy=0;entryPerimeter=0;exitX=0;exitY=0;exitDx=0;exitDy=0;" edge="1" parent="1" source="xWXkVfhPle93Gli7PesM-33" target="xWXkVfhPle93Gli7PesM-30">
          <mxGeometry width="50" height="50" relative="1" as="geometry">
            <mxPoint x="1170" y="870" as="sourcePoint" />
            <mxPoint x="1220" y="820" as="targetPoint" />
          </mxGeometry>
        </mxCell>
        <mxCell id="xWXkVfhPle93Gli7PesM-42" value="" style="endArrow=none;html=1;entryX=1;entryY=1;entryDx=0;entryDy=0;exitX=0;exitY=0.5;exitDx=0;exitDy=0;" edge="1" parent="1" source="xWXkVfhPle93Gli7PesM-34" target="xWXkVfhPle93Gli7PesM-30">
          <mxGeometry width="50" height="50" relative="1" as="geometry">
            <mxPoint x="1170" y="870" as="sourcePoint" />
            <mxPoint x="1220" y="820" as="targetPoint" />
          </mxGeometry>
        </mxCell>
        <mxCell id="xWXkVfhPle93Gli7PesM-43" value="" style="endArrow=none;html=1;exitX=1;exitY=0.75;exitDx=0;exitDy=0;" edge="1" parent="1" source="xWXkVfhPle93Gli7PesM-30" target="xWXkVfhPle93Gli7PesM-35">
          <mxGeometry width="50" height="50" relative="1" as="geometry">
            <mxPoint x="1170" y="870" as="sourcePoint" />
            <mxPoint x="1220" y="820" as="targetPoint" />
          </mxGeometry>
        </mxCell>
        <mxCell id="xWXkVfhPle93Gli7PesM-44" value="" style="endArrow=none;html=1;entryX=0;entryY=1;entryDx=0;entryDy=0;exitX=1;exitY=0.25;exitDx=0;exitDy=0;" edge="1" parent="1" source="xWXkVfhPle93Gli7PesM-30" target="xWXkVfhPle93Gli7PesM-36">
          <mxGeometry width="50" height="50" relative="1" as="geometry">
            <mxPoint x="1170" y="870" as="sourcePoint" />
            <mxPoint x="1220" y="820" as="targetPoint" />
          </mxGeometry>
        </mxCell>
        <mxCell id="xWXkVfhPle93Gli7PesM-47" value="A" style="rounded=0;whiteSpace=wrap;html=1;" vertex="1" parent="1">
          <mxGeometry x="720" y="1860" width="120" height="60" as="geometry" />
        </mxCell>
        <mxCell id="xWXkVfhPle93Gli7PesM-48" value="B" style="rounded=0;whiteSpace=wrap;html=1;" vertex="1" parent="1">
          <mxGeometry x="1110" y="1860" width="120" height="60" as="geometry" />
        </mxCell>
        <mxCell id="xWXkVfhPle93Gli7PesM-49" value="R" style="rhombus;whiteSpace=wrap;html=1;" vertex="1" parent="1">
          <mxGeometry x="930" y="1850" width="80" height="80" as="geometry" />
        </mxCell>
        <mxCell id="xWXkVfhPle93Gli7PesM-50" value="" style="endArrow=none;html=1;exitX=1;exitY=0.5;exitDx=0;exitDy=0;entryX=0;entryY=0.5;entryDx=0;entryDy=0;" edge="1" parent="1" source="xWXkVfhPle93Gli7PesM-47" target="xWXkVfhPle93Gli7PesM-49">
          <mxGeometry width="50" height="50" relative="1" as="geometry">
            <mxPoint x="1030" y="1930" as="sourcePoint" />
            <mxPoint x="1080" y="1880" as="targetPoint" />
          </mxGeometry>
        </mxCell>
        <mxCell id="xWXkVfhPle93Gli7PesM-51" value="" style="endArrow=none;html=1;exitX=1;exitY=0.5;exitDx=0;exitDy=0;entryX=0;entryY=0.5;entryDx=0;entryDy=0;" edge="1" parent="1" source="xWXkVfhPle93Gli7PesM-49" target="xWXkVfhPle93Gli7PesM-48">
          <mxGeometry width="50" height="50" relative="1" as="geometry">
            <mxPoint x="1030" y="1930" as="sourcePoint" />
            <mxPoint x="1080" y="1880" as="targetPoint" />
          </mxGeometry>
        </mxCell>
        <mxCell id="xWXkVfhPle93Gli7PesM-52" value="CA" style="ellipse;whiteSpace=wrap;html=1;" vertex="1" parent="1">
          <mxGeometry x="720" y="1960" width="80" height="50" as="geometry" />
        </mxCell>
        <mxCell id="xWXkVfhPle93Gli7PesM-53" value="" style="endArrow=none;html=1;exitX=0.5;exitY=0;exitDx=0;exitDy=0;entryX=0.25;entryY=1;entryDx=0;entryDy=0;" edge="1" parent="1" source="xWXkVfhPle93Gli7PesM-52" target="xWXkVfhPle93Gli7PesM-47">
          <mxGeometry width="50" height="50" relative="1" as="geometry">
            <mxPoint x="1030" y="1930" as="sourcePoint" />
            <mxPoint x="1080" y="1880" as="targetPoint" />
          </mxGeometry>
        </mxCell>
        <mxCell id="xWXkVfhPle93Gli7PesM-54" value="CB" style="ellipse;whiteSpace=wrap;html=1;" vertex="1" parent="1">
          <mxGeometry x="1110" y="1960" width="80" height="50" as="geometry" />
        </mxCell>
        <mxCell id="xWXkVfhPle93Gli7PesM-55" value="" style="endArrow=none;html=1;entryX=0.25;entryY=1;entryDx=0;entryDy=0;" edge="1" parent="1" source="xWXkVfhPle93Gli7PesM-54" target="xWXkVfhPle93Gli7PesM-48">
          <mxGeometry width="50" height="50" relative="1" as="geometry">
            <mxPoint x="770" y="1970" as="sourcePoint" />
            <mxPoint x="760" y="1930" as="targetPoint" />
          </mxGeometry>
        </mxCell>
        <mxCell id="xWXkVfhPle93Gli7PesM-56" value="CR" style="ellipse;whiteSpace=wrap;html=1;" vertex="1" parent="1">
          <mxGeometry x="920" y="1960" width="80" height="50" as="geometry" />
        </mxCell>
        <mxCell id="xWXkVfhPle93Gli7PesM-57" value="" style="endArrow=none;html=1;exitX=0.5;exitY=0;exitDx=0;exitDy=0;entryX=0.663;entryY=0.875;entryDx=0;entryDy=0;entryPerimeter=0;" edge="1" parent="1" source="xWXkVfhPle93Gli7PesM-56" target="xWXkVfhPle93Gli7PesM-49">
          <mxGeometry width="50" height="50" relative="1" as="geometry">
            <mxPoint x="1030" y="1930" as="sourcePoint" />
            <mxPoint x="1080" y="1880" as="targetPoint" />
          </mxGeometry>
        </mxCell>
        <mxCell id="xWXkVfhPle93Gli7PesM-58" value="(1,1)" style="text;html=1;strokeColor=none;fillColor=none;align=center;verticalAlign=middle;whiteSpace=wrap;rounded=0;" vertex="1" parent="1">
          <mxGeometry x="870" y="1870" width="40" height="20" as="geometry" />
        </mxCell>
        <mxCell id="xWXkVfhPle93Gli7PesM-59" value="(1,1)" style="text;html=1;strokeColor=none;fillColor=none;align=center;verticalAlign=middle;whiteSpace=wrap;rounded=0;" vertex="1" parent="1">
          <mxGeometry x="1040" y="1870" width="40" height="20" as="geometry" />
        </mxCell>
        <mxCell id="xWXkVfhPle93Gli7PesM-60" value="" style="endArrow=none;html=1;exitX=0.5;exitY=0;exitDx=0;exitDy=0;entryX=0.5;entryY=1;entryDx=0;entryDy=0;" edge="1" parent="1" source="xWXkVfhPle93Gli7PesM-13" target="xWXkVfhPle93Gli7PesM-29">
          <mxGeometry width="50" height="50" relative="1" as="geometry">
            <mxPoint x="1030" y="830" as="sourcePoint" />
            <mxPoint x="1080" y="780" as="targetPoint" />
          </mxGeometry>
        </mxCell>
        <mxCell id="xWXkVfhPle93Gli7PesM-61" value="(0,N)" style="text;html=1;strokeColor=none;fillColor=none;align=center;verticalAlign=middle;whiteSpace=wrap;rounded=0;" vertex="1" parent="1">
          <mxGeometry x="910" y="700" width="40" height="20" as="geometry" />
        </mxCell>
        <mxCell id="xWXkVfhPle93Gli7PesM-62" value="(1,N)" style="text;html=1;strokeColor=none;fillColor=none;align=center;verticalAlign=middle;whiteSpace=wrap;rounded=0;" vertex="1" parent="1">
          <mxGeometry x="780" y="790" width="40" height="20" as="geometry" />
        </mxCell>
        <mxCell id="xWXkVfhPle93Gli7PesM-63" value="(1,1)" style="text;html=1;strokeColor=none;fillColor=none;align=center;verticalAlign=middle;whiteSpace=wrap;rounded=0;" vertex="1" parent="1">
          <mxGeometry x="1120" y="720" width="40" height="20" as="geometry" />
        </mxCell>
        <mxCell id="xWXkVfhPle93Gli7PesM-64" value="" style="endArrow=none;html=1;exitX=1;exitY=0.5;exitDx=0;exitDy=0;entryX=0;entryY=0.5;entryDx=0;entryDy=0;" edge="1" parent="1" source="xWXkVfhPle93Gli7PesM-29" target="xWXkVfhPle93Gli7PesM-63">
          <mxGeometry width="50" height="50" relative="1" as="geometry">
            <mxPoint x="1080" y="730" as="sourcePoint" />
            <mxPoint x="1200" y="730" as="targetPoint" />
          </mxGeometry>
        </mxCell>
        <mxCell id="xWXkVfhPle93Gli7PesM-66" value="(1,N)" style="text;html=1;strokeColor=none;fillColor=none;align=center;verticalAlign=middle;whiteSpace=wrap;rounded=0;" vertex="1" parent="1">
          <mxGeometry x="780" y="920" width="40" height="20" as="geometry" />
        </mxCell>
      </root>
    </mxGraphModel>
  </diagram>
</mxfile>
